<?xml version="1.0" encoding="UTF-8"?>
<svg width="51px" height="55px" viewBox="0 0 51 55" version="1.1" xmlns="http://www.w3.org/2000/svg" xmlns:xlink="http://www.w3.org/1999/xlink">
    <!-- Generator: Sketch 47.1 (45422) - http://www.bohemiancoding.com/sketch -->
    <title>Compra-protegida</title>
    <desc>Created with Sketch.</desc>
    <defs></defs>
    <g id="Desktop" stroke="none" stroke-width="1" fill="none" fill-rule="evenodd">
        <g id="Home" transform="translate(-1015.000000, -5374.000000)">
            <g id="Footer" transform="translate(0.000000, 5295.000000)">
                <g id="Compra-protegida" transform="translate(1016.000000, 80.000000)">
                    <path d="M21.8786797,32.8786797 L16.2928932,27.2928932 L16.2928932,27.2928932 C15.9023689,26.9023689 15.9023689,26.2692039 16.2928932,25.8786797 L17.8786797,24.2928932 L17.8786797,24.2928932 C18.2692039,23.9023689 18.9023689,23.9023689 19.2928932,24.2928932 L22.5857864,27.5857864 L31.8786797,18.2928932 L31.8786797,18.2928932 C32.2692039,17.9023689 32.9023689,17.9023689 33.2928932,18.2928932 L34.8786797,19.8786797 L34.8786797,19.8786797 C35.2692039,20.2692039 35.2692039,20.9023689 34.8786797,21.2928932 L23.2928932,32.8786797 L23.2928932,32.8786797 C22.9023689,33.2692039 22.2692039,33.2692039 21.8786797,32.8786797 Z" id="Shape" fill="#3483FA" fill-rule="nonzero"></path>
                    <path d="M24.7086777,0.4124 C24.7086777,0.4124 17.7086777,10.4124 0.708677686,7.4124 C0.708677686,7.4124 -5.29132231,36.7674 24.7086777,52.5904 C54.7086777,36.7674 48.7086777,7.4124 48.7086777,7.4124 C31.7086777,10.4124 24.7086777,0.4124 24.7086777,0.4124 Z" id="Page-1" stroke="#474747" stroke-width="1.413" stroke-linecap="round" stroke-linejoin="round"></path>
                </g>
            </g>
        </g>
    </g>
</svg>